<?xml version="1.0" encoding="iso-8859-1"?>
<!-- Uploaded to: SVG Repo, www.svgrepo.com, Generator: SVG Repo Mixer Tools -->
<svg fill="#000000" version="1.1" id="Layer_1" xmlns="http://www.w3.org/2000/svg" xmlns:xlink="http://www.w3.org/1999/xlink" 
	 viewBox="0 0 496 496" xml:space="preserve">
<g>
	<g>
		<g>
			<path d="M232,216c0-29.16-25.128-48-64-48s-64,18.84-64,48c0,31.808,21.984,64,64,64S232,247.808,232,216z M168,264
				c-32.976,0-48-24.88-48-48c0-23.592,24.8-32,48-32s48,8.408,48,32C216,239.12,200.976,264,168,264z"/>
			<path d="M264,216c0,31.808,21.984,64,64,64s64-32.192,64-64c0-29.16-25.128-48-64-48S264,186.84,264,216z M376,216
				c0,23.12-15.024,48-48,48s-48-24.88-48-48c0-23.592,24.8-32,48-32S376,192.408,376,216z"/>
			<path d="M266.736,283.568C263.16,276.44,255.976,272,248,272s-15.16,4.44-18.736,11.576l-19.056,38.112
				c-1.44,2.888-2.208,6.136-2.208,9.368C208,342.6,217.4,352,228.944,352h38.112C278.6,352,288,342.6,288,331.056
				c0-3.232-0.768-6.48-2.208-9.368L266.736,283.568z M240,336h-11.056c-2.728,0-4.944-2.216-4.944-4.944
				c0-0.768,0.176-1.528,0.52-2.208L240,297.896V336z M267.056,336H256v-38.112l15.48,30.952c0.344,0.68,0.52,1.448,0.52,2.216
				C272,333.784,269.784,336,267.056,336z"/>
			<path d="M496,120c0-17.648-14.352-32-32-32c-11.488,0-21.968,6.24-27.608,16H413.68C383.864,42.504,320.808,0,248,0
				S112.136,42.504,82.328,104h-22.72C53.968,94.24,43.488,88,32,88c-17.648,0-32,14.352-32,32c0,5.64,1.52,11.152,4.368,16
				C1.52,140.848,0,146.36,0,152c0,17.648,14.352,32,32,32c11.488,0,21.968-6.24,27.608-16h5.128C64.28,173.28,64,178.608,64,184
				v168c0,32.576,24.48,59.552,56,63.504V456c0,22.056,17.944,40,40,40h176c22.056,0,40-17.944,40-40v-40.504
				c31.52-3.944,56-30.92,56-63.504V184c0-5.392-0.28-10.72-0.736-16h5.128c5.64,9.76,16.128,16,27.608,16c17.648,0,32-14.352,32-32
				c0-5.64-1.52-11.152-4.368-16C494.48,131.152,496,125.64,496,120z M66.84,152H48.88l-1.888,5.32
				C44.728,163.712,38.696,168,32,168c-8.824,0-16-7.176-16-16c0-3.88,1.488-7.656,4.168-10.648L24.992,136l-4.824-5.352
				C17.488,127.656,16,123.88,16,120c0-8.824,7.176-16,16-16c6.696,0,12.728,4.288,14.992,10.68L48.88,120h26.616
				C71.672,130.264,68.784,140.968,66.84,152z M416,352c0,26.472-21.528,48-48,48h-8v56c0,13.232-10.768,24-24,24h-8v-48h-16v48h-32
				v-48h-16v48h-32v-48h-16v48h-32v-48h-16v48h-8c-13.232,0-24-10.768-24-24v-56h-8c-26.472,0-48-21.528-48-48V184
				c0-92.632,75.368-168,168-168c13.48,0,26.528,1.768,39.096,4.784L281.224,56H251.72l-18.376,27.56l13.312,8.872L260.28,72h24.408
				L296,83.312v17.376l-29.656,29.656l11.312,11.312L312,107.312V76.688l-15.432-15.432l5.992-35.984
				C368.456,48,416,110.488,416,184V352z M475.832,141.352C478.512,144.344,480,148.12,480,152c0,8.824-7.176,16-16,16
				c-6.696,0-12.728-4.288-14.992-10.68L447.12,152h-17.96c-1.944-11.032-4.832-21.736-8.656-32h26.616l1.888-5.32
				C451.272,108.288,457.304,104,464,104c8.824,0,16,7.176,16,16c0,3.88-1.488,7.656-4.168,10.648L471.008,136L475.832,141.352z"/>
			<rect x="240" y="368" width="16" height="16"/>
			<rect x="272" y="368" width="16" height="16"/>
			<rect x="208" y="368" width="16" height="16"/>
		</g>
	</g>
</g>
</svg>